# Blender 4.5.4 LTS
# www.blender.org
mtllib hammer.mtl
o Cube.001
v -0.096700 0.000474 0.000250
v -0.096700 0.001170 -0.004656
v -0.096700 0.003171 -0.008969
v -0.096700 0.006237 -0.012171
v -0.096700 0.009999 -0.013875
v -0.096700 0.014002 -0.013875
v -0.096700 0.017763 -0.012171
v -0.096700 0.022831 -0.004656
v -0.096700 0.022831 0.005155
v -0.096700 0.020830 0.009469
v -0.096700 0.017763 0.012670
v -0.096700 0.014002 0.014374
v -0.096700 0.009999 0.014374
v -0.096700 0.006237 0.012670
v -0.096700 0.003171 0.009469
v -0.096700 0.001170 0.005155
v -0.058521 -0.000218 0.002935
v -0.058521 0.000519 -0.002062
v -0.058521 0.002641 -0.006456
v -0.058521 0.005891 -0.009718
v -0.058521 0.009879 -0.011453
v -0.058521 0.014122 -0.011453
v -0.058521 0.018109 -0.009718
v -0.058521 0.021360 -0.006456
v -0.058521 0.023482 -0.002062
v -0.058521 0.024218 0.002935
v -0.058521 0.023482 0.007932
v -0.058521 0.021360 0.012326
v -0.058521 0.018109 0.015588
v -0.058521 0.014122 0.017323
v -0.058521 0.009879 0.017323
v -0.058521 0.005891 0.015588
v -0.058521 0.002641 0.012326
v -0.058521 0.000519 0.007932
v -0.017599 0.000267 0.003283
v -0.017599 0.000974 -0.001711
v -0.017599 0.003012 -0.006103
v -0.017599 0.006134 -0.009362
v -0.017599 0.009963 -0.011096
v -0.017599 0.014038 -0.011096
v -0.017599 0.017867 -0.009362
v -0.017599 0.020989 -0.006103
v -0.017599 0.023026 -0.001711
v -0.017599 0.023734 0.003283
v -0.017599 0.023026 0.008276
v -0.017599 0.020989 0.012668
v -0.017599 0.017867 0.015927
v -0.017599 0.014038 0.017661
v -0.017599 0.009963 0.017661
v -0.017599 0.006134 0.015927
v -0.017599 0.003012 0.012668
v -0.017599 0.000974 0.008276
v 0.023324 0.000697 0.002837
v 0.023324 0.001378 -0.001974
v 0.023324 0.003341 -0.006204
v 0.023324 0.006349 -0.009344
v 0.023324 0.010038 -0.011015
v 0.023324 0.013963 -0.011015
v 0.023324 0.017652 -0.009344
v 0.023324 0.020659 -0.006204
v 0.023324 0.022622 -0.001974
v 0.023324 0.023304 0.002837
v 0.023324 0.022622 0.007648
v 0.023324 0.020659 0.011878
v 0.023324 0.017652 0.015018
v 0.023324 0.013963 0.016689
v 0.023324 0.010038 0.016689
v 0.023324 0.006349 0.015018
v 0.023324 0.003341 0.011878
v 0.023324 0.001378 0.007648
v 0.072860 0.001602 0.002883
v 0.072860 0.002229 -0.001542
v 0.072860 0.004035 -0.005434
v 0.072860 0.006801 -0.008322
v 0.072860 0.010195 -0.009859
v 0.072860 0.013806 -0.009859
v 0.072860 0.017199 -0.008322
v 0.072860 0.019966 -0.005434
v 0.072860 0.021771 -0.001542
v 0.072860 0.022399 0.002883
v 0.072860 0.021771 0.007308
v 0.072860 0.019966 0.011200
v 0.072860 0.017199 0.014088
v 0.072860 0.013806 0.015625
v 0.072860 0.010195 0.015625
v 0.072860 0.006801 0.014088
v 0.072860 0.004035 0.011200
v 0.072860 0.002229 0.007308
v -0.099565 0.002831 0.000250
v -0.099565 0.003384 -0.003653
v -0.099565 0.004976 -0.007085
v -0.099565 0.007416 -0.009632
v -0.099565 0.010408 -0.010987
v -0.099565 0.013593 -0.010987
v -0.099565 0.016585 -0.009632
v -0.099565 0.019025 -0.007085
v -0.099565 0.020617 -0.003653
v -0.099565 0.021170 0.000250
v -0.099565 0.020617 0.004152
v -0.099565 0.019025 0.007584
v -0.099565 0.016585 0.010131
v -0.099565 0.013593 0.011487
v -0.099565 0.010408 0.011487
v -0.099565 0.007416 0.010131
v -0.099565 0.004976 0.007584
v -0.099565 0.003384 0.004152
v -0.100565 0.005887 0.000250
v -0.100565 0.006256 -0.002352
v -0.100565 0.007317 -0.004640
v -0.100565 0.010939 -0.007242
v -0.100565 0.013062 -0.007242
v -0.100565 0.015057 -0.006338
v -0.100565 0.016683 -0.004640
v -0.100565 0.017745 -0.002352
v -0.100565 0.018113 0.000250
v -0.100565 0.016683 0.005139
v -0.100565 0.015057 0.006837
v -0.100565 0.013062 0.007741
v -0.100565 0.010939 0.007741
v -0.100565 0.008944 0.006837
v -0.100565 0.007317 0.005139
v -0.100565 0.006256 0.002851
v -0.101832 0.008944 0.000250
v -0.101832 0.009128 -0.001051
v -0.101832 0.009659 -0.002195
v -0.101832 0.010472 -0.003044
v -0.101832 0.011470 -0.003496
v -0.101832 0.012531 -0.003496
v -0.101832 0.013529 -0.003044
v -0.101832 0.014342 -0.002195
v -0.101832 0.014873 -0.001051
v -0.101832 0.015057 0.000250
v -0.101832 0.014873 0.001551
v -0.101832 0.014342 0.002694
v -0.101832 0.013529 0.003544
v -0.101832 0.012531 0.003995
v -0.101832 0.011470 0.003995
v -0.101832 0.010472 0.003544
v -0.101832 0.009659 0.002694
v -0.101832 0.009128 0.001551
v -0.102457 0.012000 0.000250
v 0.068748 0.022509 -0.001880
v 0.068748 0.020567 -0.006065
v 0.068748 0.017592 -0.009172
v 0.068748 0.013942 -0.010824
v 0.068748 0.010059 -0.010824
v 0.068748 0.006409 -0.009172
v 0.068748 0.003434 -0.006065
v 0.068748 0.001492 -0.001880
v 0.068748 0.000818 0.002879
v 0.068748 0.001492 0.007638
v 0.068748 0.003434 0.011824
v 0.068748 0.006409 0.014930
v 0.068748 0.010059 0.016583
v 0.068748 0.013942 0.016583
v 0.068748 0.017592 0.014930
v 0.068748 0.020567 0.011824
v 0.068748 0.022509 0.007638
v 0.068748 0.023183 0.002879
v -0.100565 0.017745 0.002851
v -0.096700 0.001170 -0.004656
v -0.100565 0.008944 -0.006338
v -0.096700 0.020830 -0.008969
v -0.096700 0.023526 0.000250
vn 0.0038 -0.9577 -0.2879
vn 0.0078 -0.9579 -0.2870
vn -0.0030 -1.0000 0.0028
vn 0.0192 -0.8214 -0.5701
vn 0.0468 -0.5775 -0.8150
vn 0.0292 -0.5715 -0.8201
vn 0.0348 -0.2080 -0.9775
vn 0.0604 0.2113 -0.9755
vn 0.0356 0.2079 -0.9775
vn 0.0288 0.5716 -0.8201
vn 0.0260 0.8244 -0.5654
vn 0.0191 0.8213 -0.5701
vn 0.0082 0.9579 -0.2870
vn -0.0170 0.9998 -0.0063
vn -0.0037 1.0000 0.0028
vn -0.0144 0.9562 0.2923
vn -0.0530 0.8298 0.5555
vn -0.0258 0.8184 0.5740
vn -0.0357 0.5685 0.8219
vn -0.0767 0.2143 0.9738
vn -0.0413 0.2066 0.9776
vn -0.0759 -0.2150 0.9737
vn -0.0421 -0.2066 0.9775
vn -0.0676 -0.5837 0.8092
vn -0.0354 -0.5685 0.8219
vn -0.0257 -0.8184 0.5740
vn -0.0359 -0.9605 0.2759
vn -0.0150 -0.9562 0.2923
vn 0.0104 -0.9599 -0.2801
vn 0.0109 -0.9999 0.0009
vn 0.0088 -0.8289 -0.5593
vn 0.0070 -0.5836 -0.8120
vn 0.0060 -0.2141 -0.9768
vn 0.0057 0.2144 -0.9767
vn 0.0072 0.5830 -0.8124
vn 0.0088 0.8293 -0.5587
vn 0.0101 0.9598 -0.2805
vn 0.0112 0.9999 0.0009
vn 0.0108 0.9593 0.2821
vn 0.0101 0.8284 0.5600
vn 0.0091 0.5821 0.8131
vn 0.0080 0.2139 0.9768
vn 0.0083 -0.2136 0.9769
vn 0.0089 -0.5827 0.8127
vn 0.0101 -0.8280 0.5606
vn 0.0110 -0.9594 0.2817
vn 0.0030 -0.9598 -0.2808
vn 0.0105 -0.9999 -0.0010
vn 0.0052 -0.8286 -0.5598
vn 0.0036 -0.5832 -0.8123
vn 0.0024 -0.2141 -0.9768
vn 0.0040 0.2143 -0.9768
vn 0.0036 0.5832 -0.8123
vn 0.0034 0.8291 -0.5592
vn 0.0077 0.9595 -0.2816
vn 0.0027 1.0000 -0.0001
vn 0.0138 0.9600 0.2798
vn 0.0174 0.8295 0.5583
vn 0.0211 0.5839 0.8116
vn 0.0236 0.2145 0.9764
vn 0.0236 -0.2145 0.9764
vn 0.0211 -0.5839 0.8116
vn 0.0174 -0.8295 0.5583
vn 0.0025 -0.9598 0.2807
vn -0.8018 -0.5975 -0.0000
vn -0.6019 -0.7760 -0.1885
vn -0.6035 -0.7683 -0.2135
vn -0.6352 -0.7723 -0.0000
vn -0.6649 -0.6193 -0.4176
vn -0.8078 -0.5657 -0.1655
vn -0.8236 -0.4702 -0.3171
vn -0.6924 -0.4210 -0.5859
vn -0.7124 -0.1504 -0.6855
vn -0.8428 -0.3140 -0.4371
vn -0.8560 -0.1108 -0.5049
vn -0.7124 0.1504 -0.6855
vn -0.6924 0.4209 -0.5859
vn -0.8560 0.1108 -0.5049
vn -0.8428 0.3140 -0.4371
vn -0.6649 0.6193 -0.4176
vn -0.6432 0.7349 -0.2150
vn -0.8236 0.4702 -0.3171
vn -0.8078 0.5657 -0.1655
vn -0.6352 0.7723 -0.0000
vn -0.6432 0.7349 0.2150
vn -0.8018 0.5975 -0.0000
vn -0.6649 0.6193 0.4176
vn -0.8078 0.5657 0.1655
vn -0.6924 0.4210 0.5859
vn -0.8236 0.4702 0.3171
vn -0.7124 0.1504 0.6855
vn -0.8428 0.3140 0.4371
vn -0.7124 -0.1504 0.6855
vn -0.8560 0.1108 0.5049
vn -0.6924 -0.4209 0.5859
vn -0.8560 -0.1108 0.5049
vn -0.6649 -0.6193 0.4176
vn -0.8428 -0.3140 0.4371
vn -0.8236 -0.4702 0.3171
vn -0.6432 -0.7349 0.2150
vn -0.8078 -0.5657 0.1655
vn -0.9391 -0.3435 -0.0000
vn -0.9415 -0.3236 -0.0946
vn -0.9474 -0.2654 -0.1790
vn -0.9542 -0.1745 -0.2429
vn -0.9588 -0.0609 -0.2775
vn -0.9588 0.0609 -0.2775
vn -0.9542 0.1745 -0.2429
vn -0.9474 0.2654 -0.1790
vn -0.9415 0.3236 -0.0946
vn -0.9391 0.3435 -0.0000
vn -0.9415 0.3236 0.0946
vn -0.9474 0.2654 0.1790
vn -0.9542 0.1745 0.2429
vn -0.9588 0.0609 0.2775
vn -0.9588 -0.0609 0.2775
vn -0.9542 -0.1745 0.2429
vn -0.9474 -0.2654 0.1790
vn -0.9415 -0.3236 0.0946
vn -0.9528 -0.3036 -0.0000
vn -0.9546 -0.2858 -0.0836
vn -0.9593 -0.2342 -0.1579
vn -0.9647 -0.1537 -0.2139
vn -0.9682 -0.0536 -0.2442
vn -0.9682 0.0536 -0.2442
vn -0.9647 0.1537 -0.2139
vn -0.9593 0.2342 -0.1579
vn -0.9546 0.2858 -0.0836
vn -0.9528 0.3036 -0.0000
vn -0.9546 0.2858 0.0836
vn -0.9593 0.2342 0.1579
vn -0.9647 0.1537 0.2139
vn -0.9682 0.0536 0.2442
vn -0.9682 -0.0536 0.2442
vn -0.9647 -0.1537 0.2139
vn -0.9593 -0.2342 0.1579
vn -0.9546 -0.2858 0.0836
vn -1.0000 -0.0000 -0.0000
vn 0.0961 -0.9553 -0.2794
vn 0.0938 -0.9956 -0.0000
vn 0.1020 -0.8248 -0.5562
vn 0.1100 -0.5799 -0.8072
vn 0.1164 -0.2129 -0.9701
vn 0.1164 0.2129 -0.9701
vn 0.1100 0.5799 -0.8072
vn 0.1020 0.8248 -0.5562
vn 0.0961 0.9553 -0.2794
vn 0.0938 0.9956 -0.0000
vn 0.0956 0.9554 0.2795
vn 0.0024 0.8291 0.5590
vn 0.1010 0.8249 0.5562
vn 0.1086 0.5800 0.8073
vn 0.0024 0.2143 0.9768
vn 0.1147 0.2129 0.9703
vn 0.1147 -0.2129 0.9703
vn 0.0024 -0.5835 0.8121
vn 0.1086 -0.5800 0.8073
vn 0.1010 -0.8249 0.5562
vn 0.0956 -0.9554 0.2795
vn 0.1915 -0.9420 -0.2755
vn 0.1874 -0.9823 0.0001
vn 0.2027 -0.8119 -0.5474
vn 0.2300 -0.2086 -0.9506
vn 0.2180 0.5695 -0.7926
vn 0.2300 0.2086 -0.9506
vn 0.2027 0.8119 -0.5474
vn 0.1915 0.9420 -0.2755
vn 0.1874 0.9823 0.0001
vn 0.1910 0.9421 0.2756
vn 0.2018 0.8120 0.5477
vn 0.2166 0.5696 0.7929
vn 0.2284 0.2086 0.9510
vn 0.2284 -0.2086 0.9510
vn 0.2166 -0.5696 0.7929
vn 0.2018 -0.8120 0.5477
vn 0.1910 -0.9421 0.2756
vn -0.0530 -0.8306 0.5543
vn -0.0177 -0.9998 -0.0063
vn 0.0257 -0.8253 -0.5642
vn 0.0612 -0.2120 -0.9754
vn 0.0471 0.5787 -0.8142
vn 0.0032 0.9579 -0.2870
vn -0.0364 0.9607 0.2751
vn -0.0671 0.5850 0.8083
vn 0.0024 0.5835 0.8121
vn 0.0024 -0.2143 0.9768
vn 0.0024 -0.8291 0.5590
vn 0.2180 -0.5695 -0.7926
vt 0.334220 0.002358
vt 0.326621 0.183671
vt 0.303876 0.183865
vt 0.350590 0.183501
vt 0.381391 0.002066
vt 0.376158 0.183374
vt 0.403181 0.183307
vt 0.428874 0.002000
vt 0.430808 0.183307
vt 0.003831 0.002000
vt 0.032787 0.183374
vt 0.005764 0.183307
vt 0.051190 0.002190
vt 0.058355 0.183501
vt 0.082325 0.183671
vt 0.098197 0.002548
vt 0.105069 0.183865
vt 0.127140 0.184059
vt 0.145212 0.002906
vt 0.149032 0.184230
vt 0.171058 0.184357
vt 0.192588 0.003097
vt 0.193301 0.184424
vt 0.216357 0.003097
vt 0.215644 0.184424
vt 0.240090 0.003031
vt 0.237887 0.184357
vt 0.259913 0.184230
vt 0.287274 0.002739
vt 0.281806 0.184059
vt 0.331137 0.377919
vt 0.307525 0.378113
vt 0.355195 0.377749
vt 0.379693 0.377622
vt 0.404520 0.377555
vt 0.429469 0.377555
vt 0.029252 0.377622
vt 0.004426 0.377555
vt 0.053750 0.377749
vt 0.077808 0.377919
vt 0.101420 0.378113
vt 0.124656 0.378307
vt 0.147621 0.378477
vt 0.170419 0.378604
vt 0.193130 0.378671
vt 0.215815 0.378671
vt 0.238526 0.378604
vt 0.261324 0.378477
vt 0.284289 0.378307
vt 0.338397 0.572143
vt 0.315287 0.572330
vt 0.361109 0.571979
vt 0.383558 0.571857
vt 0.405864 0.571792
vt 0.428124 0.571792
vt 0.025387 0.571857
vt 0.003081 0.571792
vt 0.047837 0.571979
vt 0.070548 0.572143
vt 0.093658 0.572330
vt 0.117298 0.572516
vt 0.141555 0.572681
vt 0.166417 0.572802
vt 0.191731 0.572867
vt 0.217214 0.572867
vt 0.242528 0.572802
vt 0.267390 0.572681
vt 0.291647 0.572516
vt 0.082862 0.837910
vt 0.054777 0.828396
vt 0.082859 0.824417
vt 0.030082 0.839854
vt 0.060521 0.841076
vt 0.040874 0.850191
vt 0.011753 0.857408
vt 0.002000 0.878942
vt 0.026292 0.864157
vt 0.018533 0.881289
vt 0.002000 0.901858
vt 0.011753 0.923391
vt 0.018533 0.899520
vt 0.026292 0.916651
vt 0.030082 0.940946
vt 0.054777 0.952404
vt 0.040874 0.930617
vt 0.060521 0.939732
vt 0.082859 0.956383
vt 0.110941 0.952404
vt 0.082862 0.942898
vt 0.135635 0.940946
vt 0.105203 0.939732
vt 0.153964 0.923391
vt 0.124849 0.930617
vt 0.163717 0.901858
vt 0.139431 0.916651
vt 0.163717 0.878942
vt 0.147190 0.899520
vt 0.153965 0.857408
vt 0.147190 0.881289
vt 0.135635 0.839854
vt 0.139431 0.864157
vt 0.124849 0.850191
vt 0.110941 0.828396
vt 0.105203 0.841076
vt 0.082863 0.855410
vt 0.067969 0.857520
vt 0.054871 0.863597
vt 0.045150 0.872908
vt 0.039977 0.884328
vt 0.039977 0.896483
vt 0.045150 0.907904
vt 0.054871 0.917214
vt 0.067969 0.923291
vt 0.082863 0.925402
vt 0.097757 0.923291
vt 0.110854 0.917214
vt 0.120576 0.907904
vt 0.125748 0.896483
vt 0.125748 0.884329
vt 0.120576 0.872908
vt 0.110854 0.863597
vt 0.097757 0.857520
vt 0.082864 0.872909
vt 0.075417 0.873965
vt 0.068868 0.877003
vt 0.064008 0.881658
vt 0.061421 0.887369
vt 0.061421 0.893446
vt 0.064008 0.899156
vt 0.068868 0.903812
vt 0.075417 0.906850
vt 0.082864 0.907905
vt 0.090311 0.906850
vt 0.096860 0.903812
vt 0.101721 0.899156
vt 0.104307 0.893446
vt 0.104307 0.887369
vt 0.101721 0.881658
vt 0.096860 0.877003
vt 0.090311 0.873965
vt 0.082865 0.890408
vt 0.343846 0.787750
vt 0.321518 0.787935
vt 0.365306 0.787587
vt 0.386194 0.787466
vt 0.406762 0.787402
vt 0.427227 0.787402
vt 0.022752 0.787466
vt 0.002184 0.787402
vt 0.043640 0.787587
vt 0.065100 0.787750
vt 0.087428 0.787934
vt 0.110947 0.788119
vt 0.135941 0.788282
vt 0.162498 0.788402
vt 0.190316 0.788466
vt 0.218629 0.788466
vt 0.246447 0.788402
vt 0.273004 0.788282
vt 0.297998 0.788119
vt 0.345020 0.807277
vt 0.322907 0.807449
vt 0.366187 0.807126
vt 0.406945 0.806954
vt 0.022207 0.807013
vt 0.002000 0.806954
vt 0.042758 0.807126
vt 0.063925 0.807277
vt 0.086038 0.807449
vt 0.109472 0.807620
vt 0.134580 0.807772
vt 0.161511 0.807884
vt 0.189952 0.807943
vt 0.218993 0.807943
vt 0.247434 0.807884
vt 0.274365 0.807772
vt 0.299473 0.807620
vt 0.263733 0.002906
vt 0.310748 0.002548
vt 0.357756 0.002190
vt 0.405115 0.002000
vt 0.027554 0.002066
vt 0.074725 0.002358
vt 0.121671 0.002739
vt 0.168855 0.003031
vt 0.427043 0.806954
vt 0.386738 0.807013
s 1
usemtl Material.001
f 2/1/1 18/2/2 17/3/3
f 2/1/1 19/4/4 18/2/2
f 4/5/5 20/6/6 19/4/4
f 4/5/5 21/7/7 20/6/6
f 6/8/8 22/9/9 21/7/7
f 6/10/8 23/11/10 22/12/9
f 163/13/11 24/14/12 23/11/10
f 163/13/11 25/15/13 24/14/12
f 164/16/14 26/17/15 25/15/13
f 164/16/14 27/18/16 26/17/15
f 10/19/17 28/20/18 27/18/16
f 10/19/17 29/21/19 28/20/18
f 12/22/20 30/23/21 29/21/19
f 12/22/20 13/24/22 31/25/23
f 14/26/24 32/27/25 31/25/23
f 14/26/24 33/28/26 32/27/25
f 16/29/27 34/30/28 33/28/26
f 16/29/27 17/3/3 34/30/28
f 18/2/2 36/31/29 35/32/30
f 18/2/2 37/33/31 36/31/29
f 20/6/6 38/34/32 37/33/31
f 20/6/6 39/35/33 38/34/32
f 22/9/9 40/36/34 39/35/33
f 22/12/9 41/37/35 40/38/34
f 24/14/12 42/39/36 41/37/35
f 24/14/12 43/40/37 42/39/36
f 26/17/15 44/41/38 43/40/37
f 26/17/15 45/42/39 44/41/38
f 28/20/18 46/43/40 45/42/39
f 28/20/18 47/44/41 46/43/40
f 30/23/21 48/45/42 47/44/41
f 30/23/21 49/46/43 48/45/42
f 32/27/25 50/47/44 49/46/43
f 32/27/25 51/48/45 50/47/44
f 34/30/28 52/49/46 51/48/45
f 34/30/28 35/32/30 52/49/46
f 36/31/29 54/50/47 53/51/48
f 36/31/29 55/52/49 54/50/47
f 38/34/32 56/53/50 55/52/49
f 38/34/32 57/54/51 56/53/50
f 40/36/34 58/55/52 57/54/51
f 40/38/34 59/56/53 58/57/52
f 42/39/36 60/58/54 59/56/53
f 42/39/36 61/59/55 60/58/54
f 44/41/38 62/60/56 61/59/55
f 44/41/38 63/61/57 62/60/56
f 46/43/40 64/62/58 63/61/57
f 46/43/40 65/63/59 64/62/58
f 48/45/42 66/64/60 65/63/59
f 48/45/42 67/65/61 66/64/60
f 50/47/44 68/66/62 67/65/61
f 50/47/44 69/67/63 68/66/62
f 52/49/46 70/68/64 69/67/63
f 52/49/46 53/51/48 70/68/64
f 89/69/65 161/70/66 2/70/67
f 2/70/67 1/71/68 89/69/65
f 3/72/69 90/73/70 91/74/71
f 4/75/72 3/72/69 91/74/71
f 5/76/73 92/77/74 93/78/75
f 6/79/76 5/76/73 93/78/75
f 7/80/77 94/81/78 95/82/79
f 7/80/77 95/82/79 163/83/80
f 8/84/81 96/85/82 97/86/83
f 8/84/81 97/86/83 164/87/84
f 9/88/85 164/87/84 98/89/86
f 10/90/87 9/88/85 99/91/88
f 11/92/89 10/90/87 100/93/90
f 12/94/91 11/92/89 101/95/92
f 13/96/93 12/94/91 102/97/94
f 14/98/95 13/96/93 103/99/96
f 15/100/97 104/101/98 105/102/99
f 16/103/100 15/100/97 105/102/99
f 1/71/68 106/104/101 89/69/65
f 89/69/65 107/105/102 108/106/103
f 91/74/71 90/73/70 109/107/104
f 91/74/71 109/107/104 162/108/105
f 93/78/75 92/77/74 110/109/106
f 93/78/75 110/109/106 111/110/107
f 95/82/79 94/81/78 112/111/108
f 95/82/79 112/111/108 113/112/109
f 97/86/83 96/85/82 114/113/110
f 97/86/83 114/113/110 115/114/111
f 98/89/86 115/114/111 160/115/112
f 99/91/88 160/115/112 116/116/113
f 100/93/90 116/116/113 117/117/114
f 101/95/92 117/117/114 118/118/115
f 102/97/94 118/118/115 119/119/116
f 103/99/96 119/119/116 120/120/117
f 105/102/99 104/101/98 121/121/118
f 105/102/99 121/121/118 122/122/119
f 89/69/65 106/104/101 107/105/102
f 108/106/103 107/105/102 123/123/120
f 109/107/104 124/124/121 125/125/122
f 109/107/104 125/125/122 162/108/105
f 110/109/106 126/126/123 127/127/124
f 111/110/107 110/109/106 127/127/124
f 112/111/108 128/128/125 129/129/126
f 113/112/109 112/111/108 129/129/126
f 114/113/110 130/130/127 131/131/128
f 115/114/111 114/113/110 131/131/128
f 115/114/111 132/132/129 160/115/112
f 116/116/113 160/115/112 133/133/130
f 117/117/114 116/116/113 134/134/131
f 118/118/115 117/117/114 135/135/132
f 119/119/116 118/118/115 136/136/133
f 120/120/117 119/119/116 137/137/134
f 121/121/118 138/138/135 139/139/136
f 122/122/119 121/121/118 139/139/136
f 107/105/102 140/140/137 123/123/120
f 124/124/121 123/123/120 141/141/138
f 125/125/122 124/124/121 141/141/138
f 126/126/123 125/125/122 141/141/138
f 127/127/124 126/126/123 141/141/138
f 128/128/125 127/127/124 141/141/138
f 129/129/126 128/128/125 141/141/138
f 130/130/127 129/129/126 141/141/138
f 131/131/128 130/130/127 141/141/138
f 132/132/129 131/131/128 141/141/138
f 133/133/130 132/132/129 141/141/138
f 134/134/131 133/133/130 141/141/138
f 135/135/132 134/134/131 141/141/138
f 136/136/133 135/135/132 141/141/138
f 137/137/134 136/136/133 141/141/138
f 138/138/135 137/137/134 141/141/138
f 139/139/136 138/138/135 141/141/138
f 140/140/137 139/139/136 141/141/138
f 123/123/120 140/140/137 141/141/138
f 54/50/47 149/142/139 150/143/140
f 54/50/47 148/144/141 149/142/139
f 56/53/50 147/145/142 148/144/141
f 56/53/50 146/146/143 147/145/142
f 58/55/52 145/147/144 146/146/143
f 58/57/52 144/148/145 145/149/144
f 60/58/54 143/150/146 144/148/145
f 60/58/54 142/151/147 143/150/146
f 62/60/56 159/152/148 142/151/147
f 62/60/56 158/153/149 159/152/148
f 64/62/150 157/154/151 158/153/149
f 64/62/150 156/155/152 157/154/151
f 66/64/153 155/156/154 156/155/152
f 66/64/153 154/157/155 155/156/154
f 68/66/156 153/158/157 154/157/155
f 68/66/156 152/159/158 153/158/157
f 70/68/64 151/160/159 152/159/158
f 70/68/64 150/143/140 151/160/159
f 149/142/139 72/161/160 71/162/161
f 148/144/141 73/163/162 149/142/139
f 147/145/142 73/163/162 148/144/141
f 146/146/143 75/164/163 147/145/142
f 145/147/144 75/164/163 146/146/143
f 77/165/164 76/166/165 145/149/144
f 143/150/146 78/167/166 77/165/164
f 79/168/167 78/167/166 143/150/146
f 159/152/148 80/169/168 79/168/167
f 81/170/169 80/169/168 159/152/148
f 157/154/151 82/171/170 81/170/169
f 83/172/171 82/171/170 157/154/151
f 155/156/154 84/173/172 83/172/171
f 85/174/173 84/173/172 155/156/154
f 153/158/157 86/175/174 85/174/173
f 87/176/175 86/175/174 153/158/157
f 151/160/159 88/177/176 87/176/175
f 71/162/161 88/177/176 151/160/159
f 14/26/24 15/178/177 33/28/26
f 33/28/26 15/178/177 16/29/27
f 16/29/27 1/179/178 17/3/3
f 17/3/3 1/179/178 2/1/1
f 2/1/1 3/180/179 19/4/4
f 19/4/4 3/180/179 4/5/5
f 4/5/5 5/181/180 21/7/7
f 21/7/7 5/181/180 6/8/8
f 6/10/8 7/182/181 23/11/10
f 23/11/10 7/182/181 163/13/11
f 163/13/11 8/183/182 25/15/13
f 25/15/13 8/183/182 164/16/14
f 164/16/14 9/184/183 27/18/16
f 27/18/16 9/184/183 10/19/17
f 10/19/17 11/185/184 29/21/19
f 29/21/19 11/185/184 12/22/20
f 31/25/23 30/23/21 12/22/20
f 31/25/23 13/24/22 14/26/24
f 132/132/129 133/133/130 160/115/112
f 160/115/112 99/91/88 98/89/86
f 98/89/86 99/91/88 9/88/85
f 133/133/130 134/134/131 116/116/113
f 116/116/113 100/93/90 99/91/88
f 99/91/88 100/93/90 10/90/87
f 134/134/131 135/135/132 117/117/114
f 117/117/114 101/95/92 100/93/90
f 100/93/90 101/95/92 11/92/89
f 135/135/132 136/136/133 118/118/115
f 118/118/115 102/97/94 101/95/92
f 101/95/92 102/97/94 12/94/91
f 136/136/133 137/137/134 119/119/116
f 119/119/116 103/99/96 102/97/94
f 102/97/94 103/99/96 13/96/93
f 137/137/134 138/138/135 120/120/117
f 120/120/117 104/101/98 103/99/96
f 103/99/96 104/101/98 14/98/95
f 15/100/97 14/98/95 104/101/98
f 104/101/98 120/120/117 121/121/118
f 121/121/118 120/120/117 138/138/135
f 139/139/136 140/140/137 122/122/119
f 122/122/119 106/104/101 105/102/99
f 105/102/99 106/104/101 16/103/100
f 1/71/68 16/103/100 106/104/101
f 106/104/101 122/122/119 107/105/102
f 107/105/102 122/122/119 140/140/137
f 123/123/120 124/124/121 108/106/103
f 108/106/103 90/73/70 89/69/65
f 89/69/65 90/73/70 161/70/66
f 3/72/69 2/70/67 161/70/66
f 161/70/66 90/73/70 3/72/69
f 90/73/70 108/106/103 109/107/104
f 109/107/104 108/106/103 124/124/121
f 125/125/122 126/126/123 162/108/105
f 162/108/105 92/77/74 91/74/71
f 91/74/71 92/77/74 4/75/72
f 5/76/73 4/75/72 92/77/74
f 92/77/74 162/108/105 110/109/106
f 110/109/106 162/108/105 126/126/123
f 127/127/124 128/128/125 111/110/107
f 111/110/107 94/81/78 93/78/75
f 93/78/75 94/81/78 6/79/76
f 7/80/77 6/79/76 94/81/78
f 94/81/78 111/110/107 112/111/108
f 112/111/108 111/110/107 128/128/125
f 129/129/126 130/130/127 113/112/109
f 113/112/109 96/85/82 95/82/79
f 95/82/79 96/85/82 163/83/80
f 8/84/81 163/83/80 96/85/82
f 96/85/82 113/112/109 114/113/110
f 114/113/110 113/112/109 130/130/127
f 131/131/128 132/132/129 115/114/111
f 115/114/111 98/89/86 97/86/83
f 97/86/83 98/89/86 164/87/84
f 22/12/9 23/11/10 41/37/35
f 41/37/35 23/11/10 24/14/12
f 24/14/12 25/15/13 43/40/37
f 43/40/37 25/15/13 26/17/15
f 26/17/15 27/18/16 45/42/39
f 45/42/39 27/18/16 28/20/18
f 28/20/18 29/21/19 47/44/41
f 47/44/41 29/21/19 30/23/21
f 30/23/21 31/25/23 49/46/43
f 49/46/43 31/25/23 32/27/25
f 32/27/25 33/28/26 51/48/45
f 51/48/45 33/28/26 34/30/28
f 34/30/28 17/3/3 35/32/30
f 35/32/30 17/3/3 18/2/2
f 18/2/2 19/4/4 37/33/31
f 37/33/31 19/4/4 20/6/6
f 20/6/6 21/7/7 39/35/33
f 39/35/33 21/7/7 22/9/9
f 40/38/34 41/37/35 59/56/53
f 59/56/53 41/37/35 42/39/36
f 42/39/36 43/40/37 61/59/55
f 61/59/55 43/40/37 44/41/38
f 44/41/38 45/42/39 63/61/57
f 63/61/57 45/42/39 46/43/40
f 46/43/40 47/44/41 65/63/59
f 65/63/59 47/44/41 48/45/42
f 48/45/42 49/46/43 67/65/61
f 67/65/61 49/46/43 50/47/44
f 50/47/44 51/48/45 69/67/63
f 69/67/63 51/48/45 52/49/46
f 52/49/46 35/32/30 53/51/48
f 53/51/48 35/32/30 36/31/29
f 36/31/29 37/33/31 55/52/49
f 55/52/49 37/33/31 38/34/32
f 38/34/32 39/35/33 57/54/51
f 57/54/51 39/35/33 40/36/34
f 58/57/52 59/56/53 144/148/145
f 144/148/145 59/56/53 60/58/54
f 60/58/54 61/59/55 142/151/147
f 142/151/147 61/59/55 62/60/56
f 62/60/56 63/61/57 158/153/149
f 158/153/149 63/61/57 64/62/150
f 64/62/150 65/63/185 156/155/152
f 156/155/152 65/63/185 66/64/153
f 66/64/153 67/65/186 154/157/155
f 154/157/155 67/65/186 68/66/156
f 68/66/156 69/67/187 152/159/158
f 152/159/158 69/67/187 70/68/64
f 70/68/64 53/51/48 150/143/140
f 150/143/140 53/51/48 54/50/47
f 54/50/47 55/52/49 148/144/141
f 148/144/141 55/52/49 56/53/50
f 56/53/50 57/54/51 146/146/143
f 146/146/143 57/54/51 58/55/52
f 145/149/144 144/148/145 77/165/164
f 77/165/164 144/148/145 143/150/146
f 143/150/146 142/151/147 79/168/167
f 79/168/167 142/151/147 159/152/148
f 159/152/148 158/153/149 81/170/169
f 81/170/169 158/153/149 157/154/151
f 157/154/151 156/155/152 83/172/171
f 83/172/171 156/155/152 155/156/154
f 155/156/154 154/157/155 85/174/173
f 85/174/173 154/157/155 153/158/157
f 153/158/157 152/159/158 87/176/175
f 87/176/175 152/159/158 151/160/159
f 151/160/159 150/143/140 71/162/161
f 71/162/161 150/143/140 149/142/139
f 145/147/144 76/186/165 75/164/163
f 75/164/163 74/187/188 147/145/142
f 147/145/142 74/187/188 73/163/162
f 73/163/162 72/161/160 149/142/139
o Cube
v 0.100060 0.002767 -0.000589
v 0.100060 0.004572 -0.004481
v 0.100060 0.007339 -0.007369
v 0.100060 0.010732 -0.008906
v 0.100060 0.014343 -0.008906
v 0.100060 0.017737 -0.007369
v 0.100060 0.020503 -0.004481
v 0.100060 0.022309 -0.000589
v 0.100060 0.022936 0.003836
v 0.100060 0.022309 0.008261
v 0.100060 0.020503 0.012153
v 0.100060 0.017737 0.015042
v 0.100060 0.014343 0.016578
v 0.100060 0.010732 0.016578
v 0.100060 0.007339 0.015042
v 0.100060 0.004572 0.012153
v 0.100060 0.002767 0.008262
v 0.101998 0.004060 0.002931
v 0.101998 0.004571 -0.000677
v 0.101998 0.006043 -0.003850
v 0.101998 0.008299 -0.006205
v 0.101998 0.011066 -0.007458
v 0.101998 0.014010 -0.007458
v 0.101998 0.016777 -0.006205
v 0.101998 0.019032 -0.003850
v 0.101998 0.020504 -0.000677
v 0.101998 0.021015 0.002931
v 0.101998 0.020504 0.006539
v 0.101998 0.019032 0.009712
v 0.101998 0.016777 0.012067
v 0.101998 0.014010 0.013320
v 0.101998 0.011066 0.013320
v 0.101998 0.008299 0.012067
v 0.101998 0.006043 0.009712
v 0.101998 0.004571 0.006539
v 0.101998 0.006886 0.002931
v 0.101998 0.007227 0.000526
v 0.101998 0.008208 -0.001590
v 0.101998 0.009712 -0.003160
v 0.101998 0.011556 -0.003995
v 0.101998 0.013519 -0.003995
v 0.101998 0.015364 -0.003160
v 0.101998 0.016867 -0.001590
v 0.101998 0.017849 0.000526
v 0.101998 0.018189 0.002931
v 0.101998 0.017849 0.005336
v 0.101998 0.016867 0.007452
v 0.101998 0.015364 0.009022
v 0.101998 0.013519 0.009857
v 0.101998 0.011556 0.009857
v 0.101998 0.008208 0.007452
v 0.101998 0.007227 0.005336
v 0.101998 0.009712 0.002931
v 0.101998 0.009882 0.001728
v 0.101998 0.010373 0.000671
v 0.101998 0.011125 -0.000114
v 0.101998 0.012047 -0.000532
v 0.101998 0.013028 -0.000532
v 0.101998 0.013951 -0.000114
v 0.101998 0.014702 0.000671
v 0.101998 0.015193 0.001728
v 0.101998 0.015364 0.002931
v 0.101998 0.015193 0.004134
v 0.101998 0.014702 0.005191
v 0.101998 0.013951 0.005976
v 0.101998 0.013028 0.006394
v 0.101998 0.012047 0.006394
v 0.101998 0.011125 0.005976
v 0.101998 0.010373 0.005191
v 0.101998 0.009882 0.004134
v 0.101998 0.012538 0.002931
v 0.073783 0.002054 0.051271
v 0.099196 0.000540 0.049756
v 0.072268 0.002054 -0.013621
v 0.099196 0.000540 -0.013621
v 0.082257 0.002054 -0.053688
v 0.085024 0.000540 -0.054386
v 0.089312 0.000540 -0.054375
v 0.089866 0.000540 -0.052725
v 0.073783 0.023451 0.051271
v 0.100710 0.023451 0.049756
v 0.072268 0.023451 -0.013621
v 0.100710 0.023451 -0.013621
v 0.082257 0.023451 -0.053688
v 0.085146 0.023451 -0.055895
v 0.089241 0.023451 -0.055888
v 0.091259 0.023451 -0.053413
v 0.072268 0.002054 0.049756
v 0.073783 0.000540 0.049756
v 0.100710 0.002054 0.049756
v 0.099196 0.002054 0.051271
v 0.073783 0.000540 -0.013621
v 0.100710 0.002054 -0.013621
v 0.083598 0.000540 -0.052807
v 0.085146 0.002054 -0.055895
v 0.089241 0.002054 -0.055888
v 0.091259 0.002054 -0.053413
v 0.073783 0.024966 0.049756
v 0.072268 0.023451 0.049756
v 0.099196 0.024966 0.049756
v 0.099196 0.023451 0.051271
v 0.073783 0.024966 -0.013621
v 0.099196 0.024966 -0.013621
v 0.083598 0.024966 -0.052807
v 0.085024 0.024966 -0.054386
v 0.089312 0.024966 -0.054375
v 0.089866 0.024966 -0.052725
v 0.099196 0.000540 0.049756
v 0.101998 0.009712 0.009022
v 0.100060 0.002140 0.003836
vn 0.6642 -0.7223 -0.1926
vn 0.8814 -0.4491 -0.1465
vn 0.7077 -0.7063 0.0160
vn 0.6319 -0.6528 -0.4179
vn 0.8741 -0.3944 -0.2836
vn 0.6142 -0.4728 -0.6318
vn 0.8740 -0.2739 -0.4014
vn 0.6087 -0.1761 -0.7736
vn 0.8766 -0.0986 -0.4710
vn 0.6087 0.1761 -0.7736
vn 0.8766 0.0986 -0.4710
vn 0.6142 0.4728 -0.6318
vn 0.8740 0.2739 -0.4013
vn 0.6319 0.6528 -0.4179
vn 0.8741 0.3944 -0.2836
vn 0.6642 0.7223 -0.1926
vn 0.8814 0.4491 -0.1465
vn 0.7077 0.7063 0.0160
vn 0.8962 0.4435 -0.0129
vn 0.7562 0.6241 0.1966
vn 0.9151 0.3899 0.1028
vn 0.8025 0.4887 0.3423
vn 0.9338 0.3013 0.1932
vn 0.8391 0.3117 0.4458
vn 0.9483 0.1895 0.2546
vn 0.8594 0.1071 0.5000
vn 0.9562 0.0646 0.2855
vn 0.8594 -0.1071 0.5000
vn 0.9562 -0.0646 0.2855
vn 0.8391 -0.3117 0.4458
vn 0.9483 -0.1895 0.2546
vn 0.8025 -0.4887 0.3423
vn 0.9338 -0.3013 0.1932
vn 0.7562 -0.6241 0.1966
vn 0.9151 -0.3899 0.1028
vn 0.8962 -0.4435 -0.0129
vn 1.0000 -0.0000 -0.0000
vn -0.0000 -1.0000 -0.0000
vn -0.0000 1.0000 -0.0000
vn -0.0000 -0.0000 1.0000
vn 0.9932 -0.0000 -0.1163
vn 0.8966 -0.0000 -0.4428
vn 0.7749 -0.0000 -0.6320
vn 0.0018 -0.0000 -1.0000
vn -0.6072 -0.0000 -0.7945
vn -0.9703 -0.0000 -0.2419
vn -0.9925 -0.0000 -0.1219
vn -1.0000 -0.0000 -0.0000
vn -0.5773 -0.5774 0.5773
vn 0.5773 -0.5774 0.5773
vn -0.5773 0.5774 0.5773
vn 0.5773 0.5774 0.5773
vn -0.0000 -0.7071 0.7071
vn -0.7071 -0.7071 -0.0000
vn -0.7047 -0.7047 -0.0826
vn -0.7040 -0.7044 -0.0910
vn 0.7044 -0.7044 -0.0871
vn 0.7047 -0.7051 -0.0792
vn 0.7071 -0.7071 -0.0000
vn -0.6090 -0.7014 -0.3703
vn -0.6107 -0.7255 -0.3174
vn -0.4873 -0.5966 -0.6377
vn -0.5000 -0.6495 -0.5728
vn 0.0015 -0.7062 -0.7080
vn 0.0016 -0.7065 -0.7077
vn 0.0018 -0.7067 -0.7075
vn 0.6776 -0.6135 -0.4057
vn 0.6660 -0.5113 -0.5432
vn 0.6886 -0.6667 -0.2851
vn 0.6777 -0.7100 -0.1913
vn -0.7040 0.7044 -0.0910
vn -0.7047 0.7047 -0.0826
vn -0.7071 0.7071 -0.0000
vn -0.0000 0.7071 0.7071
vn 0.7071 0.7071 -0.0000
vn 0.7047 0.7051 -0.0792
vn -0.5000 0.6495 -0.5728
vn -0.4873 0.5966 -0.6377
vn -0.6090 0.7014 -0.3703
vn 0.0016 0.7065 -0.7077
vn 0.0013 0.7060 -0.7082
vn 0.0015 0.7062 -0.7080
vn 0.7044 0.7044 -0.0871
vn 0.6777 0.7100 -0.1913
vn 0.6886 0.6667 -0.2851
vn 0.6660 0.5113 -0.5432
vn 0.6776 0.6135 -0.4057
vn -0.7071 -0.0000 0.7071
vn 0.7071 -0.0000 0.7071
vn -0.6107 0.7255 -0.3174
vn 0.0013 -0.7060 -0.7082
vn 0.0018 0.7067 -0.7075
vt 0.368534 0.841446
vt 0.368781 0.851456
vt 0.343992 0.837967
vt 0.390116 0.851461
vt 0.386377 0.859622
vt 0.406135 0.866807
vt 0.399437 0.872133
vt 0.414658 0.885631
vt 0.406386 0.887481
vt 0.414658 0.905663
vt 0.406386 0.903813
vt 0.406135 0.924486
vt 0.399437 0.919160
vt 0.390116 0.939832
vt 0.386377 0.931671
vt 0.368534 0.949848
vt 0.368781 0.939837
vt 0.343992 0.953326
vt 0.348772 0.942673
vt 0.319451 0.949848
vt 0.328763 0.939837
vt 0.297869 0.939832
vt 0.311167 0.931671
vt 0.281850 0.924487
vt 0.298107 0.919160
vt 0.273327 0.905663
vt 0.291158 0.903813
vt 0.273327 0.885631
vt 0.291158 0.887481
vt 0.281850 0.866807
vt 0.298107 0.872133
vt 0.297869 0.851461
vt 0.311167 0.859622
vt 0.319451 0.841446
vt 0.328763 0.851456
vt 0.348772 0.848620
vt 0.348772 0.864296
vt 0.362111 0.866186
vt 0.382548 0.879971
vt 0.373842 0.871630
vt 0.387181 0.890203
vt 0.387181 0.901091
vt 0.373842 0.919663
vt 0.382548 0.911322
vt 0.348772 0.926998
vt 0.362111 0.925107
vt 0.323702 0.919663
vt 0.335432 0.925107
vt 0.314995 0.911322
vt 0.310362 0.890203
vt 0.310362 0.901091
vt 0.323702 0.871630
vt 0.314995 0.879971
vt 0.335432 0.866186
vt 0.355442 0.880916
vt 0.348772 0.879971
vt 0.361307 0.883638
vt 0.365660 0.887809
vt 0.367976 0.892925
vt 0.367976 0.898369
vt 0.365660 0.903484
vt 0.361307 0.907655
vt 0.355442 0.910377
vt 0.348772 0.911322
vt 0.342102 0.910377
vt 0.336237 0.907655
vt 0.331883 0.903484
vt 0.329567 0.898369
vt 0.329567 0.892925
vt 0.331883 0.887809
vt 0.336237 0.883638
vt 0.342102 0.880916
vt 0.348772 0.895647
vt 0.747332 0.382073
vt 0.932849 0.335604
vt 0.747332 0.261759
vt 0.747332 0.398547
vt 0.932465 0.442719
vt 0.747332 0.518862
vt 0.753092 0.812052
vt 0.887303 0.925053
vt 0.753092 0.925053
vt 0.447281 0.131898
vt 0.780851 0.131898
vt 0.447281 0.245285
vt 0.996112 0.245285
vt 0.780851 0.245285
vt 0.644929 0.809037
vt 0.644929 0.933539
vt 0.632210 0.933538
vt 0.668700 0.933539
vt 0.684573 0.809037
vt 0.684572 0.933539
vt 0.447281 0.002000
vt 0.664541 0.115425
vt 0.447281 0.115425
vt 0.998000 0.002000
vt 0.998000 0.115425
vt 0.735941 0.797463
vt 0.724882 0.797463
vt 0.730411 0.788053
vt 0.916938 0.784317
vt 0.922468 0.793727
vt 0.911409 0.793727
vt 0.732658 0.945917
vt 0.727128 0.955327
vt 0.721599 0.945917
vt 0.921412 0.947504
vt 0.915883 0.956913
vt 0.910354 0.947504
vt 0.756251 0.791854
vt 0.885535 0.781202
vt 0.885535 0.781202
vt 0.885535 0.791854
vt 0.959254 0.546471
vt 0.636836 0.546471
vt 0.636836 0.535819
vt 0.958199 0.619837
vt 0.958199 0.630489
vt 0.635780 0.619837
vt 0.956856 0.740007
vt 0.748502 0.750590
vt 0.751199 0.739945
vt 0.687394 0.791275
vt 0.672995 0.799501
vt 0.672857 0.788004
vt 0.650941 0.800793
vt 0.649765 0.789347
vt 0.638777 0.793263
vt 0.951335 0.644040
vt 0.744892 0.654628
vt 0.746677 0.644096
vt 0.636836 0.573597
vt 0.636836 0.562944
vt 0.959254 0.562944
vt 0.746909 0.956300
vt 0.746909 0.945648
vt 0.876193 0.956300
vt 0.635780 0.603364
vt 0.635780 0.592712
vt 0.958199 0.592712
vt 0.666290 0.962801
vt 0.666428 0.951304
vt 0.680827 0.959530
vt 0.740502 0.711304
vt 0.950724 0.711366
vt 0.948855 0.721887
vt 0.644375 0.950012
vt 0.749068 0.691075
vt 0.747283 0.680543
vt 0.953727 0.691131
vt 0.632210 0.957542
vt 0.643199 0.961458
vt 0.735241 0.925768
vt 0.723929 0.925768
vt 0.723929 0.812767
vt 0.928955 0.811991
vt 0.928955 0.924993
vt 0.917644 0.924993
vt 0.673143 0.968480
vt 0.639352 0.966732
vt 0.645918 0.784072
vt 0.679710 0.782325
vt 0.996112 0.131898
vt 0.940275 0.445341
vt 0.940326 0.465639
vt 0.932849 0.472392
vt 0.447281 0.518862
vt 0.447281 0.398547
vt 0.953100 0.654685
vt 0.940326 0.328851
vt 0.940275 0.308553
vt 0.932465 0.305931
vt 0.447281 0.261759
vt 0.447281 0.382073
vt 0.447281 0.261759
vt 0.958725 0.750527
vt 0.635780 0.630489
vt 0.959254 0.535819
vt 0.756251 0.781202
vt 0.887303 0.812052
vt 0.917644 0.811991
vt 0.958199 0.603364
vt 0.955492 0.680485
vt 0.632210 0.809037
vt 0.668700 0.809037
vt 0.664541 0.002000
vt 0.735241 0.812767
vt 0.876193 0.945648
vt 0.959254 0.573597
vt 0.743199 0.721949
s 1
usemtl Material.002
f 165/188/189 183/189/190 274/190/191
f 165/188/189 166/191/192 184/192/193
f 166/191/192 167/193/194 185/194/195
f 167/193/194 168/195/196 186/196/197
f 168/195/196 169/197/198 187/198/199
f 169/197/198 170/199/200 188/200/201
f 170/199/200 171/201/202 189/202/203
f 171/201/202 172/203/204 190/204/205
f 172/203/204 173/205/206 191/206/207
f 173/205/206 174/207/208 192/208/209
f 174/207/208 175/209/210 193/210/211
f 175/209/210 176/211/212 194/212/213
f 176/211/212 177/213/214 195/214/215
f 177/213/214 178/215/216 196/216/217
f 178/215/216 179/217/218 197/218/219
f 179/217/218 180/219/220 198/220/221
f 180/219/220 181/221/222 199/222/223
f 181/221/222 274/190/191 182/223/224
f 182/223/224 183/189/190 200/224/225
f 183/189/190 184/192/193 201/225/225
f 185/194/195 203/226/225 202/227/225
f 186/196/197 204/228/225 203/226/225
f 187/198/199 205/229/225 204/228/225
f 187/198/199 188/200/201 205/229/225
f 189/202/203 207/230/225 206/231/225
f 189/202/203 190/204/205 207/230/225
f 191/206/207 209/232/225 208/233/225
f 191/206/207 192/208/209 209/232/225
f 193/210/211 211/234/225 210/235/225
f 194/212/213 212/236/225 211/234/225
f 194/212/213 195/214/215 212/236/225
f 196/216/217 214/237/225 213/238/225
f 196/216/217 197/218/219 214/237/225
f 198/220/221 215/239/225 273/240/225
f 198/220/221 199/222/223 215/239/225
f 182/223/224 200/224/225 216/241/225
f 200/224/225 218/242/225 217/243/225
f 201/225/225 202/227/225 219/244/225
f 202/227/225 220/245/225 219/244/225
f 203/226/225 204/228/225 221/246/225
f 204/228/225 205/229/225 222/247/225
f 205/229/225 223/248/225 222/247/225
f 206/231/225 207/230/225 224/249/225
f 207/230/225 225/250/225 224/249/225
f 208/233/225 209/232/225 226/251/225
f 209/232/225 227/252/225 226/251/225
f 210/235/225 211/234/225 228/253/225
f 211/234/225 212/236/225 229/254/225
f 212/236/225 230/255/225 229/254/225
f 213/238/225 214/237/225 231/256/225
f 214/237/225 232/257/225 231/256/225
f 215/239/225 233/258/225 273/240/225
f 215/239/225 234/259/225 233/258/225
f 216/241/225 200/224/225 217/243/225
f 217/243/225 218/242/225 235/260/225
f 218/242/225 219/244/225 235/260/225
f 219/244/225 220/245/225 235/260/225
f 220/245/225 221/246/225 235/260/225
f 221/246/225 222/247/225 235/260/225
f 222/247/225 223/248/225 235/260/225
f 223/248/225 224/249/225 235/260/225
f 224/249/225 225/250/225 235/260/225
f 225/250/225 226/251/225 235/260/225
f 226/251/225 227/252/225 235/260/225
f 227/252/225 228/253/225 235/260/225
f 228/253/225 229/254/225 235/260/225
f 229/254/225 230/255/225 235/260/225
f 230/255/225 231/256/225 235/260/225
f 231/256/225 232/257/225 235/260/225
f 232/257/225 233/258/225 235/260/225
f 233/258/225 234/259/225 235/260/225
f 234/259/225 217/243/225 235/260/225
f 256/261/226 258/262/226 239/263/226
f 267/264/227 271/265/227 266/266/227
f 236/267/228 265/268/228 244/269/228
f 254/270/225 257/271/229 245/272/225
f 257/271/229 251/273/230 247/274/229
f 260/275/231 250/276/231 251/277/230
f 260/275/232 249/278/232 250/276/232
f 240/279/233 248/280/233 249/278/233
f 240/281/234 246/282/235 248/283/234
f 252/284/236 263/285/236 246/282/235
f 236/286/237 252/287/237 253/288/237
f 237/289/238 254/290/238 255/291/238
f 244/292/239 262/293/239 263/294/239
f 245/295/240 264/296/240 265/297/240
f 236/298/241 272/299/241 237/300/241
f 237/300/241 255/301/241 236/298/241
f 252/302/242 238/303/243 256/304/244
f 239/305/245 257/306/246 237/307/247
f 256/308/244 240/309/248 258/310/249
f 240/311/248 259/312/250 241/313/251
f 241/313/252 260/314/253 242/315/254
f 242/315/255 260/314/256 261/316/257
f 243/317/258 257/318/246 239/319/245
f 266/320/259 246/321/260 263/322/261
f 262/323/262 244/324/262 264/325/262
f 264/326/263 245/327/263 247/328/264
f 269/329/265 249/330/266 248/331/267
f 248/332/267 246/333/260 266/334/259
f 250/335/268 249/330/269 269/329/270
f 267/336/271 247/337/264 271/338/272
f 251/339/273 250/335/274 270/340/275
f 244/341/276 263/342/276 252/343/276
f 254/344/277 245/345/277 265/346/277
f 248/331/267 268/347/278 269/329/265
f 270/340/275 271/348/272 251/339/273
f 261/316/257 243/349/258 242/315/255
f 241/313/251 258/350/249 240/311/248
f 257/271/229 261/351/230 251/273/230
f 270/352/227 269/353/227 268/354/227
f 268/354/227 271/265/227 270/352/227
f 271/265/227 268/354/227 266/266/227
f 262/355/227 264/356/227 267/264/227
f 267/264/227 266/266/227 262/355/227
f 243/317/258 261/357/257 257/318/246
f 241/358/226 242/359/226 243/360/226
f 243/360/226 258/262/226 241/358/226
f 258/262/226 243/360/226 239/263/226
f 272/361/226 253/362/226 256/261/226
f 256/261/226 237/363/226 272/361/226
f 256/261/226 239/263/226 237/363/226
f 256/308/244 238/364/243 240/309/248
f 257/306/246 254/365/247 237/307/247
f 256/304/244 253/366/242 252/302/242
f 236/298/241 253/367/241 272/299/241
f 236/267/228 255/368/228 265/268/228
f 265/346/277 255/369/277 254/344/277
f 257/271/229 247/274/229 245/272/225
f 247/328/264 267/370/271 264/326/263
f 247/337/264 251/371/273 271/338/272
f 251/277/230 261/372/230 260/275/231
f 260/275/232 259/373/232 249/278/232
f 249/278/233 259/373/233 240/279/233
f 240/281/234 238/374/235 246/282/235
f 246/282/235 238/374/235 252/284/236
f 252/343/276 236/375/276 244/341/276
f 244/324/262 265/376/262 264/325/262
f 263/322/261 262/377/261 266/320/259
f 266/334/259 268/378/278 248/332/267
f 241/313/252 259/312/279 260/314/253
f 269/329/270 270/340/280 250/335/268
f 229/254/225 228/253/225 211/234/225
f 211/234/225 193/210/211 194/212/213
f 195/214/215 213/238/225 212/236/225
f 212/236/225 213/238/225 230/255/225
f 231/256/225 230/255/225 213/238/225
f 213/238/225 195/214/215 196/216/217
f 197/218/219 273/240/225 214/237/225
f 214/237/225 273/240/225 232/257/225
f 233/258/225 232/257/225 273/240/225
f 273/240/225 197/218/219 198/220/221
f 199/222/223 216/241/225 215/239/225
f 215/239/225 216/241/225 234/259/225
f 217/243/225 234/259/225 216/241/225
f 216/241/225 199/222/223 182/223/224
f 183/189/190 201/225/225 200/224/225
f 200/224/225 201/225/225 218/242/225
f 219/244/225 218/242/225 201/225/225
f 184/192/193 202/227/225 201/225/225
f 202/227/225 184/192/193 185/194/195
f 202/227/225 203/226/225 220/245/225
f 221/246/225 220/245/225 203/226/225
f 203/226/225 185/194/195 186/196/197
f 222/247/225 221/246/225 204/228/225
f 204/228/225 186/196/197 187/198/199
f 188/200/201 206/231/225 205/229/225
f 205/229/225 206/231/225 223/248/225
f 224/249/225 223/248/225 206/231/225
f 206/231/225 188/200/201 189/202/203
f 190/204/205 208/233/225 207/230/225
f 207/230/225 208/233/225 225/250/225
f 226/251/225 225/250/225 208/233/225
f 208/233/225 190/204/205 191/206/207
f 192/208/209 210/235/225 209/232/225
f 209/232/225 210/235/225 227/252/225
f 228/253/225 227/252/225 210/235/225
f 210/235/225 192/208/209 193/210/211
f 196/216/217 195/214/215 177/213/214
f 195/214/215 194/212/213 176/211/212
f 194/212/213 193/210/211 175/209/210
f 193/210/211 192/208/209 174/207/208
f 192/208/209 191/206/207 173/205/206
f 191/206/207 190/204/205 172/203/204
f 197/218/219 196/216/217 178/215/216
f 198/220/221 197/218/219 179/217/218
f 199/222/223 198/220/221 180/219/220
f 182/223/224 199/222/223 181/221/222
f 183/189/190 182/223/224 274/190/191
f 184/192/193 183/189/190 165/188/189
f 185/194/195 184/192/193 166/191/192
f 186/196/197 185/194/195 167/193/194
f 187/198/199 186/196/197 168/195/196
f 188/200/201 187/198/199 169/197/198
f 189/202/203 188/200/201 170/199/200
f 190/204/205 189/202/203 171/201/202
